<svg width="38" height="39" viewBox="0 0 38 39" fill="none" xmlns="http://www.w3.org/2000/svg">
<path d="M19 0.444397C8.531 0.444397 0 8.9754 0 19.4444C0 29.9134 8.531 38.4444 19 38.4444C29.469 38.4444 38 29.9134 38 19.4444C38 8.9754 29.469 0.444397 19 0.444397ZM25.384 23.8144C25.935 24.3654 25.935 25.2774 25.384 25.8284C25.099 26.1134 24.738 26.2464 24.377 26.2464C24.016 26.2464 23.655 26.1134 23.37 25.8284L19 21.4584L14.63 25.8284C14.345 26.1134 13.984 26.2464 13.623 26.2464C13.262 26.2464 12.901 26.1134 12.616 25.8284C12.065 25.2774 12.065 24.3654 12.616 23.8144L16.986 19.4444L12.616 15.0744C12.065 14.5234 12.065 13.6114 12.616 13.0604C13.167 12.5094 14.079 12.5094 14.63 13.0604L19 17.4304L23.37 13.0604C23.921 12.5094 24.833 12.5094 25.384 13.0604C25.935 13.6114 25.935 14.5234 25.384 15.0744L21.014 19.4444L25.384 23.8144Z" fill="#292D32"/>
</svg>
