<svg width="38" height="38" viewBox="0 0 38 38" fill="none" xmlns="http://www.w3.org/2000/svg">
<path d="M26.961 0H11.039C4.123 0 0 4.123 0 11.039V26.942C0 33.877 4.123 38 11.039 38H26.942C33.858 38 37.981 33.877 37.981 26.961V11.039C38 4.123 33.877 0 26.961 0ZM17.005 29.469C16.454 30.02 15.409 30.552 14.649 30.666L9.975 31.331C9.804 31.35 9.633 31.369 9.462 31.369C8.683 31.369 7.961 31.103 7.448 30.59C6.821 29.963 6.555 29.051 6.707 28.044L7.372 23.37C7.486 22.591 7.999 21.565 8.569 21.014L17.043 12.54C17.195 12.939 17.347 13.338 17.556 13.794C17.746 14.193 17.955 14.611 18.183 14.991C18.373 15.314 18.582 15.618 18.753 15.846C18.962 16.169 19.209 16.473 19.361 16.644C19.456 16.777 19.532 16.872 19.57 16.91C20.045 17.48 20.596 18.012 21.071 18.411C21.204 18.544 21.28 18.62 21.318 18.639C21.603 18.867 21.888 19.095 22.135 19.266C22.439 19.494 22.743 19.703 23.066 19.874C23.446 20.102 23.864 20.311 24.282 20.52C24.719 20.71 25.118 20.881 25.517 21.014L17.005 29.469ZM29.203 17.271L27.455 19.038C27.341 19.152 27.189 19.209 27.037 19.209C26.98 19.209 26.904 19.209 26.866 19.19C23.009 18.088 19.931 15.01 18.829 11.153C18.772 10.944 18.829 10.716 18.981 10.583L20.748 8.816C23.636 5.928 26.391 5.985 29.222 8.816C30.666 10.26 31.369 11.647 31.369 13.091C31.35 14.459 30.647 15.827 29.203 17.271Z" fill="#292D32"/>
</svg>
